# MagicaVoxel @ Ephtracy

# group
o 

# material
mtllib Bush.mtl
usemtl palette

# normals
vn -1 0 0
vn 1 0 0
vn 0 0 1
vn 0 0 -1
vn 0 -1 0
vn 0 1 0

# texcoords
vt 0.279297 0.5
vt 0.654297 0.5
vt 0.771484 0.5
vt 0.794922 0.5

# verts
v 1.4 2 -1.3
v 1.4 2 -1.4
v 1.4 2 -1.5
v 1.4 2 -1.6
v 1.4 2.1 -1.3
v 1.4 2.1 -1.4
v 1.4 2.1 -1.5
v 1.4 2.1 -1.6
v 1.5 2 -1.4
v 1.5 2 -1.5
v 1.5 2 -1.6
v 1.5 2 -1.7
v 1.5 2 -1.8
v 1.5 2.1 -1.4
v 1.5 2.1 -1.5
v 1.5 2.1 -1.6
v 1.5 2.1 -1.7
v 1.5 2.2 -1.6
v 1.5 2.2 -1.7
v 1.5 2.2 -1.8
v 1.5 2.2 -1.9
v 1.5 2.3 -1.8
v 1.5 2.3 -1.9
v 1.5 2.4 -1.7
v 1.5 2.4 -1.8
v 1.6 2 -1.8
v 1.6 2 -1.9
v 1.6 2 -2
v 1.6 2.1 -1.4
v 1.6 2.1 -1.5
v 1.6 2.1 -1.6
v 1.6 2.1 -1.9
v 1.6 2.1 -2
v 1.6 2.2 -1.5
v 1.6 2.2 -1.6
v 1.6 2.2 -1.7
v 1.6 2.2 -1.8
v 1.6 2.2 -1.9
v 1.6 2.2 -2
v 1.6 2.3 -1.4
v 1.6 2.3 -1.5
v 1.6 2.3 -1.6
v 1.6 2.3 -1.7
v 1.7 2.3 -1.7
v 1.7 2.3 -1.8
v 1.7 2.4 -1.4
v 1.7 2.4 -1.5
v 1.7 2.5 -1.4
v 1.7 2.5 -1.5
v 1.7 2.5 -1.7
v 1.7 2.5 -1.8
v 1.8 2 -1.3
v 1.8 2 -1.4
v 1.8 2.2 -1.3
v 1.8 2.2 -1.4
v 1.8 2.3 -1.3
v 1.8 2.3 -1.4
v 1.8 2.3 -1.5
v 1.8 2.3 -1.6
v 1.8 2.3 -1.7
v 1.8 2.3 -1.8
v 1.8 2.3 -1.9
v 1.8 2.4 -1.4
v 1.8 2.4 -1.5
v 1.8 2.4 -1.6
v 1.8 2.4 -1.7
v 1.8 2.4 -1.8
v 1.8 2.4 -1.9
v 1.9 2 -1.2
v 1.9 2 -1.3
v 1.9 2.2 -1.2
v 1.9 2.2 -1.3
v 1.9 2.2 -1.9
v 1.9 2.2 -2
v 1.9 2.3 -1.3
v 1.9 2.3 -1.4
v 1.9 2.3 -1.5
v 1.9 2.3 -1.6
v 1.9 2.3 -1.9
v 1.9 2.3 -2
v 1.9 2.4 -1.3
v 1.9 2.4 -1.4
v 1.9 2.4 -1.5
v 1.9 2.4 -1.6
v 2 2 -1.8
v 2 2 -1.9
v 2 2.1 -1.8
v 2 2.1 -1.9
v 2 2.2 -1.2
v 2 2.2 -1.3
v 2 2.2 -1.5
v 2 2.2 -1.7
v 2 2.3 -1.2
v 2 2.3 -1.3
v 2 2.3 -1.5
v 2 2.3 -1.7
v 2.1 2.1 -1.9
v 2.1 2.1 -2
v 2.1 2.2 -1.9
v 2.1 2.2 -2
v 2.1 2.3 -1.8
v 2.1 2.3 -1.9
v 2.1 2.4 -1.8
v 2.1 2.4 -1.9
v 1.5 2 -1.3
v 1.5 2 -1.4
v 1.5 2.1 -1.3
v 1.5 2.1 -1.4
v 1.6 2.3 -1.7
v 1.6 2.3 -1.8
v 1.6 2.4 -1.7
v 1.6 2.4 -1.8
v 1.8 2.1 -1.9
v 1.8 2.1 -2
v 1.8 2.2 -1.9
v 1.8 2.2 -2
v 1.8 2.4 -1.4
v 1.8 2.4 -1.5
v 1.8 2.5 -1.4
v 1.8 2.5 -1.5
v 1.9 2 -1.8
v 1.9 2 -1.9
v 1.9 2.1 -1.8
v 1.9 2.1 -1.9
v 1.9 2.2 -1.5
v 1.9 2.2 -1.6
v 1.9 2.2 -1.7
v 1.9 2.3 -1.5
v 1.9 2.3 -1.6
v 1.9 2.3 -1.7
v 1.9 2.3 -1.8
v 1.9 2.3 -1.9
v 1.9 2.4 -1.7
v 1.9 2.4 -1.8
v 1.9 2.4 -1.9
v 1.9 2.5 -1.7
v 1.9 2.5 -1.8
v 2 2.2 -1.4
v 2 2.2 -1.5
v 2 2.2 -1.9
v 2 2.2 -2
v 2 2.3 -1.3
v 2 2.3 -1.4
v 2 2.3 -1.5
v 2 2.3 -1.7
v 2 2.3 -1.8
v 2 2.3 -1.9
v 2 2.3 -2
v 2 2.4 -1.3
v 2 2.4 -1.7
v 2 2.4 -1.8
v 2.1 2 -1.2
v 2.1 2 -1.3
v 2.1 2 -1.4
v 2.1 2 -1.8
v 2.1 2 -1.9
v 2.1 2.1 -1.2
v 2.1 2.1 -1.3
v 2.1 2.1 -1.4
v 2.1 2.1 -1.6
v 2.1 2.1 -1.8
v 2.1 2.1 -1.9
v 2.1 2.2 -1.4
v 2.1 2.2 -1.5
v 2.1 2.2 -1.6
v 2.1 2.2 -1.7
v 2.1 2.2 -1.8
v 2.1 2.3 -1.2
v 2.1 2.3 -1.4
v 2.1 2.3 -1.5
v 2.1 2.3 -1.6
v 2.2 2 -1.4
v 2.2 2 -1.8
v 2.2 2 -1.9
v 2.2 2 -2
v 2.2 2.1 -1.4
v 2.2 2.1 -1.5
v 2.2 2.1 -1.6
v 2.2 2.1 -1.8
v 2.2 2.1 -1.9
v 2.2 2.2 -1.4
v 2.2 2.2 -1.5
v 2.2 2.2 -1.6
v 2.2 2.2 -1.7
v 2.2 2.2 -1.8
v 2.2 2.2 -1.9
v 2.2 2.2 -2
v 2.2 2.3 -1.6
v 2.2 2.3 -1.7
v 2.2 2.3 -1.8
v 2.2 2.4 -1.8
v 2.2 2.4 -1.9
v 1.9 2 -1.2
v 1.9 2.2 -1.2
v 2 2.1 -1.2
v 2 2.2 -1.2
v 2 2.3 -1.2
v 2.1 2 -1.2
v 2.1 2.1 -1.2
v 2.1 2.3 -1.2
v 1.4 2 -1.3
v 1.4 2.1 -1.3
v 1.5 2 -1.3
v 1.5 2.1 -1.3
v 1.8 2 -1.3
v 1.8 2.2 -1.3
v 1.8 2.3 -1.3
v 1.9 2 -1.3
v 1.9 2.2 -1.3
v 1.9 2.3 -1.3
v 1.9 2.4 -1.3
v 2 2.2 -1.3
v 2 2.3 -1.3
v 2 2.4 -1.3
v 1.5 2 -1.4
v 1.5 2.1 -1.4
v 1.6 2.1 -1.4
v 1.6 2.3 -1.4
v 1.7 2 -1.4
v 1.7 2.2 -1.4
v 1.7 2.4 -1.4
v 1.7 2.5 -1.4
v 1.8 2 -1.4
v 1.8 2.2 -1.4
v 1.8 2.3 -1.4
v 1.8 2.4 -1.4
v 1.8 2.5 -1.4
v 1.9 2.3 -1.4
v 1.9 2.4 -1.4
v 2.1 2 -1.4
v 2.1 2.1 -1.4
v 2.1 2.2 -1.4
v 2.2 2 -1.4
v 2.2 2.1 -1.4
v 2.2 2.2 -1.4
v 1.4 2 -1.5
v 1.4 2.1 -1.5
v 1.5 2 -1.5
v 1.5 2.1 -1.5
v 2 2.2 -1.5
v 2 2.3 -1.5
v 2.1 2.2 -1.5
v 2.1 2.3 -1.5
v 1.5 2.1 -1.6
v 1.5 2.2 -1.6
v 1.6 2.1 -1.6
v 1.6 2.2 -1.6
v 1.8 2.3 -1.6
v 1.8 2.4 -1.6
v 1.9 2.3 -1.6
v 1.9 2.4 -1.6
v 2.1 2.2 -1.6
v 2.1 2.3 -1.6
v 2.2 2.2 -1.6
v 2.2 2.3 -1.6
v 1.5 2.2 -1.7
v 1.5 2.4 -1.7
v 1.6 2.2 -1.7
v 1.6 2.3 -1.7
v 1.6 2.4 -1.7
v 1.7 2.3 -1.7
v 1.7 2.5 -1.7
v 1.8 2.3 -1.7
v 1.8 2.4 -1.7
v 1.8 2.5 -1.7
v 1.9 2.2 -1.7
v 1.9 2.3 -1.7
v 1.9 2.4 -1.7
v 1.9 2.5 -1.7
v 2 2.2 -1.7
v 2 2.3 -1.7
v 2.1 2.1 -1.8
v 2.1 2.2 -1.8
v 2.1 2.3 -1.8
v 2.1 2.4 -1.8
v 2.2 2.1 -1.8
v 2.2 2.2 -1.8
v 2.2 2.3 -1.8
v 2.2 2.4 -1.8
v 1.9 2 -1.9
v 1.9 2.1 -1.9
v 2 2 -1.9
v 2 2.1 -1.9
v 2.1 2 -1.9
v 2.1 2.1 -1.9
v 2.2 2 -1.9
v 2.2 2.1 -1.9
v 1.4 2 -1.4
v 1.4 2.1 -1.4
v 1.5 2 -1.4
v 1.5 2.1 -1.4
v 2 2.2 -1.4
v 2 2.3 -1.4
v 2.1 2.2 -1.4
v 2.1 2.3 -1.4
v 1.7 2.4 -1.5
v 1.7 2.5 -1.5
v 1.8 2.3 -1.5
v 1.8 2.4 -1.5
v 1.8 2.5 -1.5
v 1.9 2.2 -1.5
v 1.9 2.3 -1.5
v 1.9 2.4 -1.5
v 2 2.2 -1.5
v 2 2.3 -1.5
v 1.4 2 -1.6
v 1.4 2.1 -1.6
v 1.5 2 -1.6
v 1.5 2.1 -1.6
v 2.1 2.1 -1.6
v 2.1 2.2 -1.6
v 2.2 2.1 -1.6
v 2.2 2.2 -1.6
v 1.5 2 -1.8
v 1.5 2.2 -1.8
v 1.5 2.3 -1.8
v 1.5 2.4 -1.8
v 1.6 2 -1.8
v 1.6 2.2 -1.8
v 1.6 2.3 -1.8
v 1.6 2.4 -1.8
v 1.7 2.3 -1.8
v 1.7 2.5 -1.8
v 1.8 2.3 -1.8
v 1.8 2.4 -1.8
v 1.8 2.5 -1.8
v 1.9 2 -1.8
v 1.9 2.1 -1.8
v 1.9 2.3 -1.8
v 1.9 2.4 -1.8
v 1.9 2.5 -1.8
v 2 2 -1.8
v 2 2.1 -1.8
v 2 2.3 -1.8
v 2 2.4 -1.8
v 2.1 2 -1.8
v 2.1 2.1 -1.8
v 2.2 2 -1.8
v 2.2 2.1 -1.8
v 1.5 2.2 -1.9
v 1.5 2.3 -1.9
v 1.6 2.2 -1.9
v 1.6 2.3 -1.9
v 1.7 2.2 -1.9
v 1.7 2.3 -1.9
v 1.8 2.1 -1.9
v 1.8 2.2 -1.9
v 1.8 2.3 -1.9
v 1.8 2.4 -1.9
v 1.9 2.1 -1.9
v 1.9 2.2 -1.9
v 1.9 2.3 -1.9
v 1.9 2.4 -1.9
v 2 2.1 -1.9
v 2 2.2 -1.9
v 2 2.3 -1.9
v 2.1 2.1 -1.9
v 2.1 2.2 -1.9
v 2.1 2.3 -1.9
v 2.1 2.4 -1.9
v 2.2 2.2 -1.9
v 2.2 2.4 -1.9
v 1.6 2 -2
v 1.6 2.1 -2
v 1.6 2.2 -2
v 1.7 2.1 -2
v 1.7 2.2 -2
v 1.8 2 -2
v 1.8 2.1 -2
v 1.8 2.2 -2
v 1.9 2.2 -2
v 1.9 2.3 -2
v 2 2.2 -2
v 2 2.3 -2
v 2.1 2.1 -2
v 2.1 2.2 -2
v 2.2 2 -2
v 2.2 2.2 -2
v 1.9 2 -1.2
v 2.1 2 -1.2
v 1.4 2 -1.3
v 1.5 2 -1.3
v 1.8 2 -1.3
v 1.9 2 -1.3
v 2.1 2 -1.3
v 1.4 2 -1.4
v 1.5 2 -1.4
v 1.7 2 -1.4
v 1.8 2 -1.4
v 1.9 2 -1.4
v 2.1 2 -1.4
v 2.2 2 -1.4
v 1.4 2 -1.5
v 1.5 2 -1.5
v 1.6 2 -1.5
v 1.7 2 -1.5
v 1.8 2 -1.5
v 1.4 2 -1.6
v 1.5 2 -1.6
v 1.6 2 -1.6
v 1.7 2 -1.6
v 1.5 2 -1.7
v 1.6 2 -1.7
v 1.7 2 -1.7
v 1.5 2 -1.8
v 1.6 2 -1.8
v 1.9 2 -1.8
v 2 2 -1.8
v 2.1 2 -1.8
v 2.2 2 -1.8
v 1.6 2 -1.9
v 1.7 2 -1.9
v 1.8 2 -1.9
v 1.9 2 -1.9
v 2 2 -1.9
v 2.1 2 -1.9
v 2.2 2 -1.9
v 1.6 2 -2
v 1.8 2 -2
v 2.2 2 -2
v 1.9 2.1 -1.8
v 2 2.1 -1.8
v 2.1 2.1 -1.8
v 2.2 2.1 -1.8
v 1.9 2.1 -1.9
v 2 2.1 -1.9
v 2.1 2.1 -1.9
v 2.2 2.1 -1.9
v 2.1 2.2 -1.6
v 2.2 2.2 -1.6
v 2.1 2.2 -1.7
v 2.2 2.2 -1.7
v 1.5 2.2 -1.8
v 1.6 2.2 -1.8
v 2.1 2.2 -1.8
v 2.2 2.2 -1.8
v 1.5 2.2 -1.9
v 1.6 2.2 -1.9
v 1.9 2.2 -1.9
v 2 2.2 -1.9
v 1.9 2.2 -2
v 2 2.2 -2
v 1.9 2.3 -1.5
v 2 2.3 -1.5
v 1.9 2.3 -1.6
v 1.9 2.3 -1.7
v 2 2.3 -1.7
v 1.7 2.4 -1.4
v 1.8 2.4 -1.4
v 1.7 2.4 -1.5
v 1.8 2.4 -1.5
v 1.4 2.1 -1.3
v 1.5 2.1 -1.3
v 1.4 2.1 -1.4
v 1.5 2.1 -1.4
v 1.6 2.1 -1.4
v 1.4 2.1 -1.5
v 1.5 2.1 -1.5
v 1.6 2.1 -1.5
v 1.4 2.1 -1.6
v 1.5 2.1 -1.6
v 1.6 2.1 -1.6
v 2.1 2.1 -1.6
v 2.2 2.1 -1.6
v 2.1 2.1 -1.8
v 2.2 2.1 -1.8
v 1.8 2.1 -1.9
v 1.9 2.1 -1.9
v 2 2.1 -1.9
v 2.1 2.1 -1.9
v 1.8 2.1 -2
v 2.1 2.1 -2
v 1.9 2.2 -1.2
v 2 2.2 -1.2
v 1.9 2.2 -1.3
v 2 2.2 -1.3
v 2 2.2 -1.4
v 2.1 2.2 -1.4
v 2.2 2.2 -1.4
v 1.9 2.2 -1.5
v 2 2.2 -1.5
v 2.1 2.2 -1.5
v 2.2 2.2 -1.5
v 1.5 2.2 -1.6
v 1.6 2.2 -1.6
v 1.9 2.2 -1.6
v 2.1 2.2 -1.6
v 2.2 2.2 -1.6
v 1.5 2.2 -1.7
v 1.6 2.2 -1.7
v 1.9 2.2 -1.7
v 2 2.2 -1.7
v 1.6 2.2 -1.9
v 1.7 2.2 -1.9
v 1.8 2.2 -1.9
v 2.1 2.2 -1.9
v 2.2 2.2 -1.9
v 1.6 2.2 -2
v 1.7 2.2 -2
v 1.8 2.2 -2
v 2.1 2.2 -2
v 2.2 2.2 -2
v 2 2.3 -1.2
v 2.1 2.3 -1.2
v 1.8 2.3 -1.3
v 1.9 2.3 -1.3
v 2 2.3 -1.3
v 1.6 2.3 -1.4
v 1.8 2.3 -1.4
v 1.9 2.3 -1.4
v 2 2.3 -1.4
v 2.1 2.3 -1.4
v 1.6 2.3 -1.5
v 1.7 2.3 -1.5
v 1.8 2.3 -1.5
v 1.9 2.3 -1.5
v 2 2.3 -1.5
v 2.1 2.3 -1.5
v 1.6 2.3 -1.6
v 1.7 2.3 -1.6
v 1.8 2.3 -1.6
v 1.9 2.3 -1.6
v 2.1 2.3 -1.6
v 2.2 2.3 -1.6
v 1.6 2.3 -1.7
v 1.7 2.3 -1.7
v 1.8 2.3 -1.7
v 2 2.3 -1.7
v 2.1 2.3 -1.7
v 2.2 2.3 -1.7
v 1.5 2.3 -1.8
v 1.6 2.3 -1.8
v 1.7 2.3 -1.8
v 1.8 2.3 -1.8
v 1.9 2.3 -1.8
v 2 2.3 -1.8
v 2.1 2.3 -1.8
v 2.2 2.3 -1.8
v 1.5 2.3 -1.9
v 1.6 2.3 -1.9
v 1.7 2.3 -1.9
v 1.8 2.3 -1.9
v 1.9 2.3 -1.9
v 2 2.3 -1.9
v 2.1 2.3 -1.9
v 1.9 2.3 -2
v 2 2.3 -2
v 1.9 2.4 -1.3
v 2 2.4 -1.3
v 1.8 2.4 -1.4
v 1.9 2.4 -1.4
v 1.8 2.4 -1.5
v 1.9 2.4 -1.5
v 1.8 2.4 -1.6
v 1.9 2.4 -1.6
v 1.5 2.4 -1.7
v 1.6 2.4 -1.7
v 1.8 2.4 -1.7
v 1.9 2.4 -1.7
v 2 2.4 -1.7
v 1.5 2.4 -1.8
v 1.6 2.4 -1.8
v 1.8 2.4 -1.8
v 1.9 2.4 -1.8
v 2 2.4 -1.8
v 2.1 2.4 -1.8
v 2.2 2.4 -1.8
v 1.8 2.4 -1.9
v 1.9 2.4 -1.9
v 2.1 2.4 -1.9
v 2.2 2.4 -1.9
v 1.7 2.5 -1.4
v 1.8 2.5 -1.4
v 1.7 2.5 -1.5
v 1.8 2.5 -1.5
v 1.7 2.5 -1.7
v 1.8 2.5 -1.7
v 1.9 2.5 -1.7
v 1.7 2.5 -1.8
v 1.8 2.5 -1.8
v 1.9 2.5 -1.8

# faces
f 5/3/1 2/3/1 1/3/1
f 6/3/1 2/3/1 5/3/1
f 7/4/1 4/4/1 3/4/1
f 8/4/1 4/4/1 7/4/1
f 14/3/1 10/3/1 9/3/1
f 15/3/1 10/3/1 14/3/1
f 16/3/1 12/3/1 11/3/1
f 17/4/1 13/4/1 12/4/1
f 17/3/1 12/3/1 16/3/1
f 18/4/1 17/4/1 16/4/1
f 19/4/1 13/4/1 17/4/1
f 19/4/1 17/4/1 18/4/1
f 20/4/1 13/4/1 19/4/1
f 22/1/1 21/1/1 20/1/1
f 22/4/1 20/4/1 19/4/1
f 23/1/1 21/1/1 22/1/1
f 24/4/1 22/4/1 19/4/1
f 25/4/1 22/4/1 24/4/1
f 32/4/1 27/4/1 26/4/1
f 32/2/1 28/2/1 27/2/1
f 33/2/1 28/2/1 32/2/1
f 34/4/1 31/4/1 30/4/1
f 34/3/1 30/3/1 29/3/1
f 35/4/1 31/4/1 34/4/1
f 37/4/1 33/4/1 32/4/1
f 37/4/1 32/4/1 26/4/1
f 38/4/1 33/4/1 37/4/1
f 39/4/1 33/4/1 38/4/1
f 40/3/1 34/3/1 29/3/1
f 41/1/1 35/1/1 34/1/1
f 41/3/1 34/3/1 40/3/1
f 42/3/1 36/3/1 35/3/1
f 42/1/1 35/1/1 41/1/1
f 43/3/1 36/3/1 42/3/1
f 48/4/1 47/4/1 46/4/1
f 49/4/1 47/4/1 48/4/1
f 50/3/1 45/3/1 44/3/1
f 51/3/1 45/3/1 50/3/1
f 54/4/1 53/4/1 52/4/1
f 55/4/1 53/4/1 54/4/1
f 56/1/1 55/1/1 54/1/1
f 57/1/1 55/1/1 56/1/1
f 63/3/1 58/3/1 57/3/1
f 64/3/1 58/3/1 63/3/1
f 65/3/1 60/3/1 59/3/1
f 66/3/1 60/3/1 65/3/1
f 67/4/1 62/4/1 61/4/1
f 68/4/1 62/4/1 67/4/1
f 71/4/1 70/4/1 69/4/1
f 72/4/1 70/4/1 71/4/1
f 79/1/1 74/1/1 73/1/1
f 80/1/1 74/1/1 79/1/1
f 81/3/1 76/3/1 75/3/1
f 82/3/1 76/3/1 81/3/1
f 83/3/1 78/3/1 77/3/1
f 84/3/1 78/3/1 83/3/1
f 87/2/1 86/2/1 85/2/1
f 88/2/1 86/2/1 87/2/1
f 93/3/1 90/3/1 89/3/1
f 94/3/1 90/3/1 93/3/1
f 95/2/1 92/2/1 91/2/1
f 96/2/1 92/2/1 95/2/1
f 99/3/1 98/3/1 97/3/1
f 100/3/1 98/3/1 99/3/1
f 103/3/1 102/3/1 101/3/1
f 104/3/1 102/3/1 103/3/1
f 105/3/2 106/3/2 107/3/2
f 107/3/2 106/3/2 108/3/2
f 109/4/2 110/4/2 111/4/2
f 111/4/2 110/4/2 112/4/2
f 113/2/2 114/2/2 115/2/2
f 115/2/2 114/2/2 116/2/2
f 117/4/2 118/4/2 119/4/2
f 119/4/2 118/4/2 120/4/2
f 121/2/2 122/2/2 123/2/2
f 123/2/2 122/2/2 124/2/2
f 125/2/2 126/2/2 128/2/2
f 126/3/2 127/3/2 129/3/2
f 128/2/2 126/2/2 129/2/2
f 129/3/2 127/3/2 130/3/2
f 131/4/2 132/4/2 134/4/2
f 134/4/2 132/4/2 135/4/2
f 133/1/2 134/1/2 136/1/2
f 136/1/2 134/1/2 137/1/2
f 138/3/2 139/3/2 143/3/2
f 143/3/2 139/3/2 144/3/2
f 140/1/2 141/1/2 147/1/2
f 147/1/2 141/1/2 148/1/2
f 142/3/2 143/3/2 149/3/2
f 143/3/2 144/3/2 149/3/2
f 144/3/2 145/3/2 149/3/2
f 145/4/2 146/4/2 150/4/2
f 149/3/2 145/3/2 150/3/2
f 150/4/2 146/4/2 151/4/2
f 152/4/2 153/4/2 157/4/2
f 153/2/2 154/2/2 158/2/2
f 157/4/2 153/4/2 158/4/2
f 158/2/2 154/2/2 159/2/2
f 155/2/2 156/2/2 161/2/2
f 161/2/2 156/2/2 162/2/2
f 158/3/2 159/3/2 163/3/2
f 157/3/2 158/3/2 163/3/2
f 160/2/2 161/2/2 165/2/2
f 165/2/2 161/2/2 166/2/2
f 166/2/2 161/2/2 167/2/2
f 157/3/2 163/3/2 168/3/2
f 168/3/2 163/3/2 169/3/2
f 164/2/2 165/2/2 170/2/2
f 170/2/2 165/2/2 171/2/2
f 172/2/2 173/2/2 176/2/2
f 176/2/2 173/2/2 177/2/2
f 177/2/2 173/2/2 178/2/2
f 178/2/2 173/2/2 179/2/2
f 174/3/2 175/3/2 180/3/2
f 176/3/2 177/3/2 181/3/2
f 177/2/2 178/2/2 182/2/2
f 181/3/2 177/3/2 182/3/2
f 182/2/2 178/2/2 183/2/2
f 179/2/2 180/2/2 185/2/2
f 180/3/2 175/3/2 186/3/2
f 185/2/2 180/2/2 186/2/2
f 186/3/2 175/3/2 187/3/2
f 183/1/2 184/1/2 188/1/2
f 184/2/2 185/2/2 189/2/2
f 188/1/2 184/1/2 189/1/2
f 185/3/2 186/3/2 190/3/2
f 189/2/2 185/2/2 190/2/2
f 190/3/2 186/3/2 191/3/2
f 191/3/2 186/3/2 192/3/2
f 195/4/3 194/4/3 193/4/3
f 196/4/3 194/4/3 195/4/3
f 198/4/3 195/4/3 193/4/3
f 199/3/3 197/3/3 196/3/3
f 199/4/3 195/4/3 198/4/3
f 199/3/3 196/3/3 195/3/3
f 200/3/3 197/3/3 199/3/3
f 203/3/3 202/3/3 201/3/3
f 204/3/3 202/3/3 203/3/3
f 208/4/3 206/4/3 205/4/3
f 209/1/3 207/1/3 206/1/3
f 209/4/3 206/4/3 208/4/3
f 210/1/3 207/1/3 209/1/3
f 212/3/3 211/3/3 210/3/3
f 212/3/3 210/3/3 209/3/3
f 213/3/3 211/3/3 212/3/3
f 214/3/3 211/3/3 213/3/3
f 217/3/3 216/3/3 215/3/3
f 219/3/3 217/3/3 215/3/3
f 219/3/3 218/3/3 217/3/3
f 220/3/3 218/3/3 219/3/3
f 223/4/3 220/4/3 219/4/3
f 224/3/3 218/3/3 220/3/3
f 224/4/3 220/4/3 223/4/3
f 225/3/3 218/3/3 224/3/3
f 226/4/3 222/4/3 221/4/3
f 227/4/3 222/4/3 226/4/3
f 228/3/3 226/3/3 225/3/3
f 229/3/3 226/3/3 228/3/3
f 233/2/3 231/2/3 230/2/3
f 234/3/3 232/3/3 231/3/3
f 234/2/3 231/2/3 233/2/3
f 235/3/3 232/3/3 234/3/3
f 238/4/3 237/4/3 236/4/3
f 239/4/3 237/4/3 238/4/3
f 242/2/3 241/2/3 240/2/3
f 243/2/3 241/2/3 242/2/3
f 246/4/3 245/4/3 244/4/3
f 247/4/3 245/4/3 246/4/3
f 250/3/3 249/3/3 248/3/3
f 251/3/3 249/3/3 250/3/3
f 254/1/3 253/1/3 252/1/3
f 255/1/3 253/1/3 254/1/3
f 258/4/3 257/4/3 256/4/3
f 259/4/3 257/4/3 258/4/3
f 260/4/3 257/4/3 259/4/3
f 263/3/3 262/3/3 261/3/3
f 264/3/3 262/3/3 263/3/3
f 265/3/3 262/3/3 264/3/3
f 268/1/3 265/1/3 264/1/3
f 269/1/3 265/1/3 268/1/3
f 270/3/3 267/3/3 266/3/3
f 271/3/3 267/3/3 270/3/3
f 276/2/3 273/2/3 272/2/3
f 277/2/3 273/2/3 276/2/3
f 278/3/3 275/3/3 274/3/3
f 279/3/3 275/3/3 278/3/3
f 282/3/3 281/3/3 280/3/3
f 283/3/3 281/3/3 282/3/3
f 286/3/3 285/3/3 284/3/3
f 287/3/3 285/3/3 286/3/3
f 288/3/4 289/3/4 290/3/4
f 290/3/4 289/3/4 291/3/4
f 292/3/4 293/3/4 294/3/4
f 294/3/4 293/3/4 295/3/4
f 296/4/4 297/4/4 299/4/4
f 299/4/4 297/4/4 300/4/4
f 298/3/4 299/3/4 302/3/4
f 302/3/4 299/3/4 303/3/4
f 301/3/4 302/3/4 304/3/4
f 304/3/4 302/3/4 305/3/4
f 306/4/4 307/4/4 308/4/4
f 308/4/4 307/4/4 309/4/4
f 310/2/4 311/2/4 312/2/4
f 312/2/4 311/2/4 313/2/4
f 314/4/4 315/4/4 318/4/4
f 318/4/4 315/4/4 319/4/4
f 316/4/4 317/4/4 320/4/4
f 320/4/4 317/4/4 321/4/4
f 322/3/4 323/3/4 324/3/4
f 324/3/4 323/3/4 325/3/4
f 325/3/4 323/3/4 326/3/4
f 325/1/4 326/1/4 330/1/4
f 330/1/4 326/1/4 331/1/4
f 327/2/4 328/2/4 332/2/4
f 332/2/4 328/2/4 333/2/4
f 329/4/4 330/4/4 334/4/4
f 334/4/4 330/4/4 335/4/4
f 336/2/4 337/2/4 338/2/4
f 338/2/4 337/2/4 339/2/4
f 340/1/4 341/1/4 342/1/4
f 342/1/4 341/1/4 343/1/4
f 342/4/4 343/4/4 344/4/4
f 344/4/4 343/4/4 345/4/4
f 344/3/4 345/3/4 347/3/4
f 347/3/4 345/3/4 348/3/4
f 347/3/4 348/3/4 350/3/4
f 346/3/4 347/3/4 350/3/4
f 350/3/4 348/3/4 351/3/4
f 348/4/4 349/4/4 352/4/4
f 351/3/4 348/3/4 352/3/4
f 352/4/4 349/4/4 353/4/4
f 350/4/4 351/4/4 354/4/4
f 354/4/4 351/4/4 355/4/4
f 354/2/4 355/2/4 357/2/4
f 355/3/4 356/3/4 358/3/4
f 357/2/4 355/2/4 358/2/4
f 358/3/4 356/3/4 359/3/4
f 359/3/4 360/3/4 361/3/4
f 358/3/4 359/3/4 361/3/4
f 361/3/4 360/3/4 362/3/4
f 363/2/4 364/2/4 366/2/4
f 364/4/4 365/4/4 366/4/4
f 366/4/4 365/4/4 367/4/4
f 363/2/4 366/2/4 368/2/4
f 366/2/4 367/2/4 368/2/4
f 368/2/4 367/2/4 369/2/4
f 369/2/4 367/2/4 370/2/4
f 371/1/4 372/1/4 373/1/4
f 373/1/4 372/1/4 374/1/4
f 368/3/4 369/3/4 375/3/4
f 368/3/4 375/3/4 377/3/4
f 375/3/4 376/3/4 377/3/4
f 377/3/4 376/3/4 378/3/4
f 384/4/5 380/4/5 379/4/5
f 385/4/5 380/4/5 384/4/5
f 386/3/5 382/3/5 381/3/5
f 387/3/5 382/3/5 386/3/5
f 389/4/5 384/4/5 383/4/5
f 390/2/5 385/2/5 384/2/5
f 390/4/5 384/4/5 389/4/5
f 391/2/5 385/2/5 390/2/5
f 394/3/5 388/3/5 387/3/5
f 395/3/5 388/3/5 394/3/5
f 396/4/5 389/4/5 388/4/5
f 396/3/5 388/3/5 395/3/5
f 397/2/5 391/2/5 390/2/5
f 397/4/5 389/4/5 396/4/5
f 397/2/5 390/2/5 389/2/5
f 397/2/5 392/2/5 391/2/5
f 398/4/5 394/4/5 393/4/5
f 398/4/5 395/4/5 394/4/5
f 399/4/5 395/4/5 398/4/5
f 400/3/5 396/3/5 395/3/5
f 400/4/5 395/4/5 399/4/5
f 401/2/5 397/2/5 396/2/5
f 401/3/5 396/3/5 400/3/5
f 402/3/5 400/3/5 399/3/5
f 403/2/5 401/2/5 400/2/5
f 403/3/5 400/3/5 402/3/5
f 404/2/5 397/2/5 401/2/5
f 404/2/5 401/2/5 403/2/5
f 405/4/5 403/4/5 402/4/5
f 405/4/5 404/4/5 403/4/5
f 406/4/5 404/4/5 405/4/5
f 407/2/5 397/2/5 404/2/5
f 407/2/5 392/2/5 397/2/5
f 408/2/5 392/2/5 407/2/5
f 409/2/5 392/2/5 408/2/5
f 410/2/5 392/2/5 409/2/5
f 411/4/5 404/4/5 406/4/5
f 412/2/5 407/2/5 404/2/5
f 412/4/5 404/4/5 411/4/5
f 413/2/5 407/2/5 412/2/5
f 414/2/5 407/2/5 413/2/5
f 415/2/5 409/2/5 408/2/5
f 416/2/5 409/2/5 415/2/5
f 418/2/5 412/2/5 411/2/5
f 418/2/5 413/2/5 412/2/5
f 419/3/5 414/3/5 413/3/5
f 419/2/5 413/2/5 418/2/5
f 419/3/5 417/3/5 416/3/5
f 419/3/5 415/3/5 414/3/5
f 419/3/5 416/3/5 415/3/5
f 420/3/5 417/3/5 419/3/5
f 425/4/5 422/4/5 421/4/5
f 426/4/5 422/4/5 425/4/5
f 427/2/5 424/2/5 423/2/5
f 428/2/5 424/2/5 427/2/5
f 431/1/5 430/1/5 429/1/5
f 432/1/5 430/1/5 431/1/5
f 435/2/5 432/2/5 431/2/5
f 436/2/5 432/2/5 435/2/5
f 437/1/5 434/1/5 433/1/5
f 438/1/5 434/1/5 437/1/5
f 441/1/5 440/1/5 439/1/5
f 442/1/5 440/1/5 441/1/5
f 445/3/5 444/3/5 443/3/5
f 446/3/5 444/3/5 445/3/5
f 447/3/5 444/3/5 446/3/5
f 450/4/5 449/4/5 448/4/5
f 451/4/5 449/4/5 450/4/5
f 452/3/6 453/3/6 454/3/6
f 454/3/6 453/3/6 455/3/6
f 455/3/6 456/3/6 458/3/6
f 458/3/6 456/3/6 459/3/6
f 457/4/6 458/4/6 460/4/6
f 458/4/6 459/4/6 460/4/6
f 460/4/6 459/4/6 461/4/6
f 461/4/6 459/4/6 462/4/6
f 463/2/6 464/2/6 465/2/6
f 465/2/6 464/2/6 466/2/6
f 467/3/6 468/3/6 471/3/6
f 469/3/6 470/3/6 471/3/6
f 468/3/6 469/3/6 471/3/6
f 471/3/6 470/3/6 472/3/6
f 473/4/6 474/4/6 475/4/6
f 475/4/6 474/4/6 476/4/6
f 477/2/6 478/2/6 481/2/6
f 478/3/6 479/3/6 482/3/6
f 481/2/6 478/2/6 482/2/6
f 482/3/6 479/3/6 483/3/6
f 480/3/6 481/3/6 486/3/6
f 482/2/6 483/2/6 487/2/6
f 487/2/6 483/2/6 488/2/6
f 484/4/6 485/4/6 489/4/6
f 489/4/6 485/4/6 490/4/6
f 486/3/6 481/3/6 491/3/6
f 491/3/6 481/3/6 492/3/6
f 493/4/6 494/4/6 498/4/6
f 494/2/6 495/2/6 499/2/6
f 498/4/6 494/4/6 499/4/6
f 499/2/6 495/2/6 500/2/6
f 496/3/6 497/3/6 501/3/6
f 501/3/6 497/3/6 502/3/6
f 503/3/6 504/3/6 507/3/6
f 505/1/6 506/1/6 509/1/6
f 509/1/6 506/1/6 510/1/6
f 507/3/6 504/3/6 511/3/6
f 511/3/6 504/3/6 512/3/6
f 508/3/6 509/3/6 513/3/6
f 513/3/6 509/3/6 514/3/6
f 514/3/6 509/3/6 515/3/6
f 513/1/6 514/1/6 519/1/6
f 514/3/6 515/3/6 520/3/6
f 519/1/6 514/1/6 520/1/6
f 515/2/6 516/2/6 521/2/6
f 520/3/6 515/3/6 521/3/6
f 521/2/6 516/2/6 522/2/6
f 517/2/6 518/2/6 523/2/6
f 519/3/6 520/3/6 525/3/6
f 520/3/6 521/3/6 525/3/6
f 525/3/6 521/3/6 526/3/6
f 526/3/6 521/3/6 527/3/6
f 517/2/6 523/2/6 528/2/6
f 523/1/6 524/1/6 529/1/6
f 528/2/6 523/2/6 529/2/6
f 529/1/6 524/1/6 530/1/6
f 525/3/6 526/3/6 532/3/6
f 532/3/6 526/3/6 533/3/6
f 529/2/6 530/2/6 536/2/6
f 528/2/6 529/2/6 536/2/6
f 536/2/6 530/2/6 537/2/6
f 537/2/6 530/2/6 538/2/6
f 531/1/6 532/1/6 539/1/6
f 532/4/6 533/4/6 540/4/6
f 539/1/6 532/1/6 540/1/6
f 533/3/6 534/3/6 541/3/6
f 540/4/6 533/4/6 541/4/6
f 541/3/6 534/3/6 542/3/6
f 535/4/6 536/4/6 543/4/6
f 536/3/6 537/3/6 544/3/6
f 543/4/6 536/4/6 544/4/6
f 544/3/6 537/3/6 545/3/6
f 543/1/6 544/1/6 546/1/6
f 546/1/6 544/1/6 547/1/6
f 548/3/6 549/3/6 551/3/6
f 550/3/6 551/3/6 552/3/6
f 551/3/6 549/3/6 553/3/6
f 552/3/6 551/3/6 553/3/6
f 553/3/6 549/3/6 555/3/6
f 554/3/6 555/3/6 558/3/6
f 555/3/6 549/3/6 559/3/6
f 558/3/6 555/3/6 559/3/6
f 559/3/6 549/3/6 560/3/6
f 556/4/6 557/4/6 561/4/6
f 561/4/6 557/4/6 562/4/6
f 559/4/6 560/4/6 564/4/6
f 564/4/6 560/4/6 565/4/6
f 563/4/6 564/4/6 568/4/6
f 568/4/6 564/4/6 569/4/6
f 566/3/6 567/3/6 570/3/6
f 570/3/6 567/3/6 571/3/6
f 572/4/6 573/4/6 574/4/6
f 574/4/6 573/4/6 575/4/6
f 576/3/6 577/3/6 579/3/6
f 577/1/6 578/1/6 580/1/6
f 579/3/6 577/3/6 580/3/6
f 580/1/6 578/1/6 581/1/6
