# MagicaVoxel @ Ephtracy

# group
g Bush

# material
mtllib Bush.mtl
usemtl palette

# normals
vn -1 0 0
vn 1 0 0
vn 0 0 1
vn 0 0 -1
vn 0 -1 0
vn 0 1 0

# texcoords
vt 0.654297 0.5
vt 0.771484 0.5
vt 0.794922 0.5

# verts
v -6 0 7
v -6 0 6
v -6 0 5
v -6 0 4
v -6 1 7
v -6 1 6
v -6 1 5
v -6 1 4
v -5 0 6
v -5 0 5
v -5 0 4
v -5 0 3
v -5 0 2
v -5 1 6
v -5 1 5
v -5 1 4
v -5 1 3
v -5 2 4
v -5 2 3
v -5 4 3
v -5 4 2
v -4 0 2
v -4 0 1
v -4 0 -0
v -4 1 6
v -4 1 5
v -4 1 4
v -4 1 1
v -4 1 -0
v -4 2 5
v -4 2 4
v -4 2 3
v -4 2 1
v -4 2 -0
v -4 3 6
v -4 3 5
v -4 3 4
v -4 3 3
v -4 3 2
v -4 3 1
v -3 2 5
v -3 2 4
v -3 3 5
v -3 3 4
v -3 3 3
v -3 3 2
v -3 4 6
v -3 4 5
v -3 5 6
v -3 5 5
v -3 5 3
v -3 5 2
v -2 0 7
v -2 0 6
v -2 2 7
v -2 2 6
v -2 3 6
v -2 3 5
v -2 3 4
v -2 3 3
v -2 3 2
v -2 3 1
v -2 4 6
v -2 4 5
v -2 4 4
v -2 4 3
v -2 4 2
v -2 4 1
v -1 0 8
v -1 0 7
v -1 2 8
v -1 2 7
v -1 2 6
v -1 3 6
v -1 3 5
v -1 3 4
v -1 4 7
v -1 4 6
v -1 4 5
v -1 4 4
v 0 0 2
v 0 0 1
v 0 1 2
v 0 1 1
v 0 2 8
v 0 2 7
v 0 2 5
v 0 2 3
v 0 3 8
v 0 3 7
v 0 3 5
v 0 3 3
v 1 1 1
v 1 1 -0
v 1 2 1
v 1 2 -0
v 1 3 2
v 1 3 1
v 1 4 2
v 1 4 1
v -5 0 7
v -5 0 6
v -5 1 7
v -5 1 6
v -4 3 3
v -4 3 2
v -4 4 3
v -4 4 2
v -2 1 1
v -2 1 -0
v -2 2 1
v -2 2 -0
v -2 4 6
v -2 4 5
v -2 4 3
v -2 4 2
v -2 5 6
v -2 5 5
v -2 5 3
v -2 5 2
v -1 0 2
v -1 0 1
v -1 1 2
v -1 1 1
v -1 2 5
v -1 2 4
v -1 2 3
v -1 3 5
v -1 3 4
v -1 3 3
v -1 3 2
v -1 3 1
v -1 4 2
v -1 4 1
v 0 2 6
v 0 2 5
v 0 3 7
v 0 3 6
v 0 3 5
v 0 3 3
v 0 3 2
v 0 4 7
v 0 4 3
v 0 4 2
v 1 0 8
v 1 0 7
v 1 0 6
v 1 0 2
v 1 0 1
v 1 1 8
v 1 1 7
v 1 1 6
v 1 1 4
v 1 1 2
v 1 1 1
v 1 2 6
v 1 2 5
v 1 2 4
v 1 2 3
v 1 2 2
v 1 3 8
v 1 3 6
v 1 3 5
v 1 3 3
v 2 0 6
v 2 0 2
v 2 0 1
v 2 0 -0
v 2 1 6
v 2 1 5
v 2 1 4
v 2 1 2
v 2 1 1
v 2 2 6
v 2 2 5
v 2 2 4
v 2 2 3
v 2 2 2
v 2 2 1
v 2 2 -0
v 2 3 3
v 2 3 2
v 2 4 2
v 2 4 1
v -1 0 8
v -1 2 8
v 0 1 8
v 0 2 8
v 0 3 8
v 1 0 8
v 1 1 8
v 1 3 8
v -6 0 7
v -6 1 7
v -5 0 7
v -5 1 7
v -2 0 7
v -2 2 7
v -1 0 7
v -1 2 7
v -1 4 7
v 0 2 7
v 0 3 7
v 0 4 7
v -5 0 6
v -5 1 6
v -4 1 6
v -4 3 6
v -3 0 6
v -3 2 6
v -3 4 6
v -3 5 6
v -2 0 6
v -2 2 6
v -2 3 6
v -2 4 6
v -2 5 6
v -1 2 6
v -1 3 6
v -1 4 6
v 1 0 6
v 1 1 6
v 1 2 6
v 2 0 6
v 2 1 6
v 2 2 6
v -6 0 5
v -6 1 5
v -5 0 5
v -5 1 5
v 0 2 5
v 0 3 5
v 1 2 5
v 1 3 5
v -5 1 4
v -5 2 4
v -4 1 4
v -4 2 4
v -4 3 4
v -3 2 4
v -3 3 4
v -2 3 4
v -2 4 4
v -1 3 4
v -1 4 4
v -5 2 3
v -5 4 3
v -4 2 3
v -4 3 3
v -4 4 3
v -3 3 3
v -3 5 3
v -2 3 3
v -2 4 3
v -2 5 3
v -1 2 3
v -1 3 3
v 0 2 3
v 0 3 3
v 1 2 3
v 1 3 3
v 2 2 3
v 2 3 3
v 1 1 2
v 1 2 2
v 1 3 2
v 1 4 2
v 2 1 2
v 2 2 2
v 2 3 2
v 2 4 2
v -1 0 1
v -1 1 1
v 0 0 1
v 0 1 1
v 1 0 1
v 1 1 1
v 2 0 1
v 2 1 1
v -6 0 6
v -6 1 6
v -5 0 6
v -5 1 6
v 0 2 6
v 0 3 6
v 1 2 6
v 1 3 6
v -4 2 5
v -4 3 5
v -3 2 5
v -3 3 5
v -3 4 5
v -3 5 5
v -2 3 5
v -2 4 5
v -2 5 5
v -1 2 5
v -1 3 5
v -1 4 5
v 0 2 5
v 0 3 5
v -6 0 4
v -6 1 4
v -5 0 4
v -5 1 4
v 1 1 4
v 1 2 4
v 2 1 4
v 2 2 4
v -5 0 2
v -5 4 2
v -4 0 2
v -4 3 2
v -4 4 2
v -3 3 2
v -3 5 2
v -2 3 2
v -2 4 2
v -2 5 2
v -1 0 2
v -1 1 2
v -1 3 2
v -1 4 2
v 0 0 2
v 0 1 2
v 0 3 2
v 0 4 2
v 1 0 2
v 1 1 2
v 2 0 2
v 2 1 2
v -4 2 1
v -4 3 1
v -3 2 1
v -3 3 1
v -2 1 1
v -2 2 1
v -2 3 1
v -2 4 1
v -1 1 1
v -1 3 1
v -1 4 1
v 0 1 1
v 0 2 1
v 0 3 1
v 1 1 1
v 1 2 1
v 1 3 1
v 1 4 1
v 2 2 1
v 2 4 1
v -4 0 -0
v -4 1 -0
v -4 2 -0
v -3 1 -0
v -3 2 -0
v -2 0 -0
v -2 1 -0
v -2 2 -0
v 1 1 -0
v 1 2 -0
v 2 0 -0
v 2 2 -0
v -1 0 8
v 1 0 8
v -6 0 7
v -5 0 7
v -2 0 7
v -1 0 7
v 1 0 7
v -6 0 6
v -5 0 6
v -3 0 6
v -2 0 6
v -1 0 6
v 1 0 6
v 2 0 6
v -6 0 5
v -5 0 5
v -4 0 5
v -3 0 5
v -2 0 5
v -6 0 4
v -5 0 4
v -4 0 4
v -3 0 4
v -5 0 3
v -4 0 3
v -3 0 3
v -5 0 2
v -4 0 2
v -1 0 2
v 0 0 2
v 1 0 2
v 2 0 2
v -4 0 1
v -3 0 1
v -2 0 1
v -1 0 1
v 0 0 1
v 1 0 1
v 2 0 1
v -4 0 -0
v -2 0 -0
v 2 0 -0
v -1 1 2
v 0 1 2
v 1 1 2
v 2 1 2
v -1 1 1
v 0 1 1
v 1 1 1
v 2 1 1
v 1 2 3
v 2 2 3
v 1 2 2
v 2 2 2
v -1 3 5
v 0 3 5
v -1 3 4
v -1 3 3
v 0 3 3
v -3 4 6
v -2 4 6
v -3 4 5
v -2 4 5
v -6 1 7
v -5 1 7
v -6 1 6
v -5 1 6
v -4 1 6
v -6 1 5
v -5 1 5
v -4 1 5
v -6 1 4
v -5 1 4
v -4 1 4
v 1 1 4
v 2 1 4
v 1 1 2
v 2 1 2
v -2 1 1
v -1 1 1
v 0 1 1
v 1 1 1
v -2 1 -0
v 1 1 -0
v -1 2 8
v 0 2 8
v -2 2 7
v -1 2 7
v 0 2 7
v -2 2 6
v -1 2 6
v 0 2 6
v 1 2 6
v 2 2 6
v -4 2 5
v -3 2 5
v -1 2 5
v 0 2 5
v 1 2 5
v 2 2 5
v -5 2 4
v -4 2 4
v -3 2 4
v -1 2 4
v 1 2 4
v 2 2 4
v -5 2 3
v -4 2 3
v -1 2 3
v 0 2 3
v -4 2 1
v -3 2 1
v -2 2 1
v 1 2 1
v 2 2 1
v -4 2 -0
v -3 2 -0
v -2 2 -0
v 1 2 -0
v 2 2 -0
v 0 3 8
v 1 3 8
v 0 3 7
v -4 3 6
v -2 3 6
v 0 3 6
v 1 3 6
v -4 3 5
v -3 3 5
v -2 3 5
v -1 3 5
v 0 3 5
v 1 3 5
v -4 3 4
v -3 3 4
v -2 3 4
v -1 3 4
v -4 3 3
v -3 3 3
v -2 3 3
v 0 3 3
v 1 3 3
v 2 3 3
v -4 3 2
v -3 3 2
v -2 3 2
v -1 3 2
v 0 3 2
v 1 3 2
v 2 3 2
v -4 3 1
v -3 3 1
v -2 3 1
v -1 3 1
v 0 3 1
v 1 3 1
v -1 4 7
v 0 4 7
v -2 4 6
v -1 4 6
v -2 4 5
v -1 4 5
v -2 4 4
v -1 4 4
v -5 4 3
v -4 4 3
v -2 4 3
v -1 4 3
v 0 4 3
v -5 4 2
v -4 4 2
v -2 4 2
v -1 4 2
v 0 4 2
v 1 4 2
v 2 4 2
v -2 4 1
v -1 4 1
v 1 4 1
v 2 4 1
v -3 5 6
v -2 5 6
v -3 5 5
v -2 5 5
v -3 5 3
v -2 5 3
v -3 5 2
v -2 5 2

# faces
f 5/2/1 2/2/1 1/2/1
f 6/2/1 2/2/1 5/2/1
f 7/3/1 4/3/1 3/3/1
f 8/3/1 4/3/1 7/3/1
f 14/2/1 10/2/1 9/2/1
f 15/2/1 10/2/1 14/2/1
f 16/2/1 12/2/1 11/2/1
f 17/3/1 13/3/1 12/3/1
f 17/2/1 12/2/1 16/2/1
f 18/3/1 17/3/1 16/3/1
f 19/3/1 13/3/1 17/3/1
f 19/3/1 17/3/1 18/3/1
f 20/3/1 13/3/1 19/3/1
f 21/3/1 13/3/1 20/3/1
f 28/3/1 23/3/1 22/3/1
f 28/1/1 24/1/1 23/1/1
f 29/1/1 24/1/1 28/1/1
f 30/3/1 27/3/1 26/3/1
f 30/2/1 26/2/1 25/2/1
f 31/3/1 27/3/1 30/3/1
f 33/3/1 29/3/1 28/3/1
f 33/3/1 28/3/1 22/3/1
f 34/3/1 29/3/1 33/3/1
f 35/2/1 30/2/1 25/2/1
f 36/2/1 30/2/1 35/2/1
f 37/2/1 32/2/1 31/2/1
f 38/2/1 32/2/1 37/2/1
f 39/3/1 33/3/1 22/3/1
f 40/3/1 33/3/1 39/3/1
f 43/2/1 42/2/1 41/2/1
f 44/2/1 42/2/1 43/2/1
f 49/3/1 48/3/1 47/3/1
f 50/3/1 48/3/1 49/3/1
f 51/2/1 46/2/1 45/2/1
f 52/2/1 46/2/1 51/2/1
f 55/3/1 54/3/1 53/3/1
f 56/3/1 54/3/1 55/3/1
f 63/2/1 58/2/1 57/2/1
f 64/2/1 58/2/1 63/2/1
f 65/2/1 60/2/1 59/2/1
f 66/2/1 60/2/1 65/2/1
f 67/3/1 62/3/1 61/3/1
f 68/3/1 62/3/1 67/3/1
f 71/3/1 70/3/1 69/3/1
f 72/3/1 70/3/1 71/3/1
f 74/2/1 73/2/1 72/2/1
f 77/2/1 74/2/1 72/2/1
f 78/2/1 74/2/1 77/2/1
f 79/2/1 76/2/1 75/2/1
f 80/2/1 76/2/1 79/2/1
f 83/1/1 82/1/1 81/1/1
f 84/1/1 82/1/1 83/1/1
f 89/2/1 86/2/1 85/2/1
f 90/2/1 86/2/1 89/2/1
f 91/1/1 88/1/1 87/1/1
f 92/1/1 88/1/1 91/1/1
f 95/2/1 94/2/1 93/2/1
f 96/2/1 94/2/1 95/2/1
f 99/2/1 98/2/1 97/2/1
f 100/2/1 98/2/1 99/2/1
f 101/2/2 102/2/2 103/2/2
f 103/2/2 102/2/2 104/2/2
f 105/3/2 106/3/2 107/3/2
f 107/3/2 106/3/2 108/3/2
f 109/1/2 110/1/2 111/1/2
f 111/1/2 110/1/2 112/1/2
f 113/3/2 114/3/2 117/3/2
f 117/3/2 114/3/2 118/3/2
f 115/2/2 116/2/2 119/2/2
f 119/2/2 116/2/2 120/2/2
f 121/1/2 122/1/2 123/1/2
f 123/1/2 122/1/2 124/1/2
f 125/1/2 126/1/2 128/1/2
f 126/2/2 127/2/2 129/2/2
f 128/1/2 126/1/2 129/1/2
f 129/2/2 127/2/2 130/2/2
f 131/3/2 132/3/2 133/3/2
f 133/3/2 132/3/2 134/3/2
f 135/2/2 136/2/2 138/2/2
f 138/2/2 136/2/2 139/2/2
f 137/2/2 138/2/2 142/2/2
f 138/2/2 139/2/2 142/2/2
f 139/2/2 140/2/2 142/2/2
f 140/3/2 141/3/2 143/3/2
f 142/2/2 140/2/2 143/2/2
f 143/3/2 141/3/2 144/3/2
f 145/3/2 146/3/2 150/3/2
f 146/1/2 147/1/2 151/1/2
f 150/3/2 146/3/2 151/3/2
f 151/1/2 147/1/2 152/1/2
f 148/1/2 149/1/2 154/1/2
f 154/1/2 149/1/2 155/1/2
f 151/2/2 152/2/2 156/2/2
f 150/2/2 151/2/2 156/2/2
f 153/1/2 154/1/2 158/1/2
f 158/1/2 154/1/2 159/1/2
f 159/1/2 154/1/2 160/1/2
f 150/2/2 156/2/2 161/2/2
f 161/2/2 156/2/2 162/2/2
f 157/1/2 158/1/2 163/1/2
f 158/1/2 159/1/2 163/1/2
f 163/1/2 159/1/2 164/1/2
f 165/1/2 166/1/2 169/1/2
f 169/1/2 166/1/2 170/1/2
f 170/1/2 166/1/2 171/1/2
f 171/1/2 166/1/2 172/1/2
f 167/2/2 168/2/2 173/2/2
f 169/2/2 170/2/2 174/2/2
f 170/1/2 171/1/2 175/1/2
f 174/2/2 170/2/2 175/2/2
f 175/1/2 171/1/2 176/1/2
f 172/1/2 173/1/2 178/1/2
f 173/2/2 168/2/2 179/2/2
f 178/1/2 173/1/2 179/1/2
f 179/2/2 168/2/2 180/2/2
f 177/1/2 178/1/2 181/1/2
f 178/2/2 179/2/2 182/2/2
f 181/1/2 178/1/2 182/1/2
f 182/2/2 179/2/2 183/2/2
f 183/2/2 179/2/2 184/2/2
f 187/3/3 186/3/3 185/3/3
f 188/3/3 186/3/3 187/3/3
f 190/3/3 187/3/3 185/3/3
f 191/2/3 189/2/3 188/2/3
f 191/3/3 187/3/3 190/3/3
f 191/2/3 188/2/3 187/2/3
f 192/2/3 189/2/3 191/2/3
f 195/2/3 194/2/3 193/2/3
f 196/2/3 194/2/3 195/2/3
f 199/3/3 198/3/3 197/3/3
f 200/3/3 198/3/3 199/3/3
f 202/2/3 201/2/3 200/2/3
f 203/2/3 201/2/3 202/2/3
f 204/2/3 201/2/3 203/2/3
f 207/2/3 206/2/3 205/2/3
f 209/2/3 207/2/3 205/2/3
f 209/2/3 208/2/3 207/2/3
f 210/2/3 208/2/3 209/2/3
f 213/3/3 210/3/3 209/3/3
f 214/2/3 208/2/3 210/2/3
f 214/3/3 210/3/3 213/3/3
f 215/2/3 208/2/3 214/2/3
f 216/3/3 212/3/3 211/3/3
f 217/3/3 212/3/3 216/3/3
f 218/1/3 215/1/3 214/1/3
f 219/2/3 216/2/3 215/2/3
f 219/1/3 215/1/3 218/1/3
f 220/2/3 216/2/3 219/2/3
f 224/1/3 222/1/3 221/1/3
f 225/2/3 223/2/3 222/2/3
f 225/1/3 222/1/3 224/1/3
f 226/2/3 223/2/3 225/2/3
f 229/3/3 228/3/3 227/3/3
f 230/3/3 228/3/3 229/3/3
f 233/1/3 232/1/3 231/1/3
f 234/1/3 232/1/3 233/1/3
f 237/3/3 236/3/3 235/3/3
f 238/3/3 236/3/3 237/3/3
f 240/2/3 239/2/3 238/2/3
f 241/2/3 239/2/3 240/2/3
f 244/2/3 243/2/3 242/2/3
f 245/2/3 243/2/3 244/2/3
f 248/3/3 247/3/3 246/3/3
f 249/3/3 247/3/3 248/3/3
f 250/3/3 247/3/3 249/3/3
f 253/2/3 252/2/3 251/2/3
f 254/2/3 252/2/3 253/2/3
f 255/2/3 252/2/3 254/2/3
f 258/2/3 257/2/3 256/2/3
f 259/2/3 257/2/3 258/2/3
f 262/1/3 261/1/3 260/1/3
f 263/1/3 261/1/3 262/1/3
f 268/1/3 265/1/3 264/1/3
f 269/1/3 265/1/3 268/1/3
f 270/2/3 267/2/3 266/2/3
f 271/2/3 267/2/3 270/2/3
f 274/2/3 273/2/3 272/2/3
f 275/2/3 273/2/3 274/2/3
f 278/2/3 277/2/3 276/2/3
f 279/2/3 277/2/3 278/2/3
f 280/2/4 281/2/4 282/2/4
f 282/2/4 281/2/4 283/2/4
f 284/2/4 285/2/4 286/2/4
f 286/2/4 285/2/4 287/2/4
f 288/2/4 289/2/4 290/2/4
f 290/2/4 289/2/4 291/2/4
f 292/3/4 293/3/4 295/3/4
f 295/3/4 293/3/4 296/3/4
f 294/2/4 295/2/4 298/2/4
f 298/2/4 295/2/4 299/2/4
f 297/2/4 298/2/4 300/2/4
f 300/2/4 298/2/4 301/2/4
f 302/3/4 303/3/4 304/3/4
f 304/3/4 303/3/4 305/3/4
f 306/1/4 307/1/4 308/1/4
f 308/1/4 307/1/4 309/1/4
f 310/3/4 311/3/4 312/3/4
f 312/3/4 311/3/4 313/3/4
f 313/3/4 311/3/4 314/3/4
f 315/2/4 316/2/4 317/2/4
f 317/2/4 316/2/4 318/2/4
f 318/2/4 316/2/4 319/2/4
f 320/1/4 321/1/4 324/1/4
f 324/1/4 321/1/4 325/1/4
f 322/3/4 323/3/4 326/3/4
f 326/3/4 323/3/4 327/3/4
f 328/1/4 329/1/4 330/1/4
f 330/1/4 329/1/4 331/1/4
f 332/3/4 333/3/4 334/3/4
f 334/3/4 333/3/4 335/3/4
f 334/2/4 335/2/4 337/2/4
f 337/2/4 335/2/4 338/2/4
f 337/2/4 338/2/4 340/2/4
f 336/2/4 337/2/4 340/2/4
f 338/3/4 339/3/4 341/3/4
f 340/2/4 338/2/4 341/2/4
f 341/3/4 339/3/4 342/3/4
f 340/3/4 341/3/4 343/3/4
f 343/3/4 341/3/4 344/3/4
f 344/3/4 341/3/4 345/3/4
f 343/1/4 344/1/4 346/1/4
f 344/2/4 345/2/4 347/2/4
f 346/1/4 344/1/4 347/1/4
f 347/2/4 345/2/4 348/2/4
f 347/2/4 348/2/4 350/2/4
f 348/2/4 349/2/4 350/2/4
f 350/2/4 349/2/4 351/2/4
f 352/1/4 353/1/4 355/1/4
f 353/3/4 354/3/4 355/3/4
f 355/3/4 354/3/4 356/3/4
f 352/1/4 355/1/4 357/1/4
f 355/1/4 356/1/4 357/1/4
f 357/1/4 356/1/4 358/1/4
f 358/1/4 356/1/4 359/1/4
f 357/2/4 358/2/4 360/2/4
f 357/2/4 360/2/4 362/2/4
f 360/2/4 361/2/4 362/2/4
f 362/2/4 361/2/4 363/2/4
f 369/3/5 365/3/5 364/3/5
f 370/3/5 365/3/5 369/3/5
f 371/2/5 367/2/5 366/2/5
f 372/2/5 367/2/5 371/2/5
f 374/3/5 369/3/5 368/3/5
f 375/1/5 370/1/5 369/1/5
f 375/3/5 369/3/5 374/3/5
f 376/1/5 370/1/5 375/1/5
f 379/2/5 373/2/5 372/2/5
f 380/2/5 373/2/5 379/2/5
f 381/3/5 374/3/5 373/3/5
f 381/2/5 373/2/5 380/2/5
f 382/1/5 376/1/5 375/1/5
f 382/3/5 374/3/5 381/3/5
f 382/1/5 375/1/5 374/1/5
f 382/1/5 377/1/5 376/1/5
f 383/3/5 379/3/5 378/3/5
f 383/3/5 380/3/5 379/3/5
f 384/3/5 380/3/5 383/3/5
f 385/2/5 381/2/5 380/2/5
f 385/3/5 380/3/5 384/3/5
f 386/1/5 382/1/5 381/1/5
f 386/2/5 381/2/5 385/2/5
f 387/2/5 385/2/5 384/2/5
f 388/1/5 386/1/5 385/1/5
f 388/2/5 385/2/5 387/2/5
f 389/1/5 382/1/5 386/1/5
f 389/1/5 386/1/5 388/1/5
f 390/3/5 388/3/5 387/3/5
f 390/3/5 389/3/5 388/3/5
f 391/3/5 389/3/5 390/3/5
f 392/1/5 382/1/5 389/1/5
f 392/1/5 377/1/5 382/1/5
f 393/1/5 377/1/5 392/1/5
f 394/1/5 377/1/5 393/1/5
f 395/1/5 377/1/5 394/1/5
f 396/3/5 389/3/5 391/3/5
f 397/1/5 392/1/5 389/1/5
f 397/3/5 389/3/5 396/3/5
f 398/1/5 392/1/5 397/1/5
f 399/1/5 392/1/5 398/1/5
f 400/1/5 394/1/5 393/1/5
f 401/1/5 394/1/5 400/1/5
f 403/1/5 397/1/5 396/1/5
f 403/1/5 398/1/5 397/1/5
f 404/2/5 399/2/5 398/2/5
f 404/1/5 398/1/5 403/1/5
f 404/2/5 402/2/5 401/2/5
f 404/2/5 400/2/5 399/2/5
f 404/2/5 401/2/5 400/2/5
f 405/2/5 402/2/5 404/2/5
f 410/3/5 407/3/5 406/3/5
f 411/3/5 407/3/5 410/3/5
f 412/1/5 409/1/5 408/1/5
f 413/1/5 409/1/5 412/1/5
f 416/1/5 415/1/5 414/1/5
f 417/1/5 415/1/5 416/1/5
f 420/2/5 419/2/5 418/2/5
f 421/2/5 419/2/5 420/2/5
f 422/2/5 419/2/5 421/2/5
f 425/3/5 424/3/5 423/3/5
f 426/3/5 424/3/5 425/3/5
f 427/2/6 428/2/6 429/2/6
f 429/2/6 428/2/6 430/2/6
f 430/2/6 431/2/6 433/2/6
f 433/2/6 431/2/6 434/2/6
f 432/3/6 433/3/6 435/3/6
f 433/3/6 434/3/6 435/3/6
f 435/3/6 434/3/6 436/3/6
f 436/3/6 434/3/6 437/3/6
f 438/1/6 439/1/6 440/1/6
f 440/1/6 439/1/6 441/1/6
f 442/2/6 443/2/6 446/2/6
f 444/2/6 445/2/6 446/2/6
f 443/2/6 444/2/6 446/2/6
f 446/2/6 445/2/6 447/2/6
f 448/3/6 449/3/6 451/3/6
f 451/3/6 449/3/6 452/3/6
f 450/3/6 451/3/6 453/3/6
f 453/3/6 451/3/6 454/3/6
f 455/1/6 456/1/6 461/1/6
f 456/2/6 457/2/6 462/2/6
f 461/1/6 456/1/6 462/1/6
f 462/2/6 457/2/6 463/2/6
f 458/3/6 459/3/6 465/3/6
f 465/3/6 459/3/6 466/3/6
f 460/2/6 461/2/6 467/2/6
f 462/1/6 463/1/6 468/1/6
f 468/1/6 463/1/6 469/1/6
f 464/3/6 465/3/6 470/3/6
f 470/3/6 465/3/6 471/3/6
f 467/2/6 461/2/6 472/2/6
f 472/2/6 461/2/6 473/2/6
f 474/3/6 475/3/6 479/3/6
f 475/1/6 476/1/6 480/1/6
f 479/3/6 475/3/6 480/3/6
f 480/1/6 476/1/6 481/1/6
f 477/2/6 478/2/6 482/2/6
f 482/2/6 478/2/6 483/2/6
f 484/2/6 485/2/6 486/2/6
f 486/2/6 485/2/6 489/2/6
f 489/2/6 485/2/6 490/2/6
f 487/2/6 488/2/6 491/2/6
f 491/2/6 488/2/6 492/2/6
f 492/2/6 488/2/6 493/2/6
f 492/2/6 493/2/6 498/2/6
f 493/1/6 494/1/6 499/1/6
f 498/2/6 493/2/6 499/2/6
f 499/1/6 494/1/6 500/1/6
f 497/2/6 498/2/6 501/2/6
f 498/2/6 499/2/6 501/2/6
f 501/2/6 499/2/6 502/2/6
f 502/2/6 499/2/6 503/2/6
f 495/1/6 496/1/6 504/1/6
f 504/1/6 496/1/6 505/1/6
f 501/2/6 502/2/6 507/2/6
f 507/2/6 502/2/6 508/2/6
f 504/1/6 505/1/6 511/1/6
f 505/1/6 506/1/6 511/1/6
f 511/1/6 506/1/6 512/1/6
f 512/1/6 506/1/6 513/1/6
f 507/3/6 508/3/6 514/3/6
f 508/2/6 509/2/6 515/2/6
f 514/3/6 508/3/6 515/3/6
f 515/2/6 509/2/6 516/2/6
f 510/3/6 511/3/6 517/3/6
f 511/2/6 512/2/6 518/2/6
f 517/3/6 511/3/6 518/3/6
f 518/2/6 512/2/6 519/2/6
f 520/2/6 521/2/6 523/2/6
f 522/2/6 523/2/6 524/2/6
f 523/2/6 521/2/6 525/2/6
f 524/2/6 523/2/6 525/2/6
f 525/2/6 521/2/6 527/2/6
f 526/2/6 527/2/6 530/2/6
f 527/2/6 521/2/6 531/2/6
f 530/2/6 527/2/6 531/2/6
f 531/2/6 521/2/6 532/2/6
f 528/3/6 529/3/6 533/3/6
f 533/3/6 529/3/6 534/3/6
f 530/2/6 531/2/6 535/2/6
f 531/3/6 532/3/6 536/3/6
f 535/2/6 531/2/6 536/2/6
f 536/3/6 532/3/6 537/3/6
f 535/3/6 536/3/6 540/3/6
f 540/3/6 536/3/6 541/3/6
f 538/2/6 539/2/6 542/2/6
f 542/2/6 539/2/6 543/2/6
f 544/3/6 545/3/6 546/3/6
f 546/3/6 545/3/6 547/3/6
f 548/2/6 549/2/6 550/2/6
f 550/2/6 549/2/6 551/2/6
