# MagicaVoxel @ Ephtracy

# group
g Flower

# material
mtllib Flower.mtl
usemtl palette

# normals
vn -1 0 0
vn 1 0 0
vn 0 0 1
vn 0 0 -1
vn 0 -1 0
vn 0 1 0

# texcoords
vt 0.794922 0.5
vt 0.841797 0.5

# verts
v -2 9 4
v -2 9 3
v -2 10 4
v -2 10 3
v -1 4 4
v -1 4 3
v -1 5 5
v -1 5 4
v -1 6 4
v -1 6 3
v -1 7 5
v -1 7 4
v -1 7 3
v -1 9 4
v -1 9 3
v 0 0 4
v 0 0 3
v 0 4 4
v 0 4 3
v 0 6 4
v 0 6 3
v 0 7 5
v 0 7 4
v 0 7 3
v 0 8 3
v 0 8 2
v 0 9 5
v 0 9 4
v 0 9 3
v 0 9 2
v 1 8 4
v 1 8 3
v 1 9 4
v 1 9 3
v 2 4 4
v 2 4 3
v 2 5 4
v 2 5 3
v 3 5 4
v 3 5 3
v 3 6 4
v 3 6 3
v -1 9 4
v -1 9 3
v -1 10 4
v -1 10 3
v 0 5 5
v 0 5 4
v 0 7 5
v 0 7 4
v 0 8 4
v 0 8 3
v 0 9 4
v 0 9 3
v 1 0 4
v 1 0 3
v 1 3 4
v 1 3 3
v 1 4 4
v 1 4 3
v 1 7 5
v 1 7 4
v 1 7 3
v 1 8 3
v 1 8 2
v 1 9 5
v 1 9 4
v 1 9 3
v 1 9 2
v 2 3 4
v 2 3 3
v 2 4 4
v 2 4 3
v 2 7 4
v 2 7 3
v 2 9 4
v 2 9 3
v 3 4 4
v 3 4 3
v 3 5 4
v 3 5 3
v 4 5 4
v 4 5 3
v 4 6 4
v 4 6 3
v -1 5 5
v -1 7 5
v 0 5 5
v 0 7 5
v 0 9 5
v 1 7 5
v 1 9 5
v -2 9 4
v -2 10 4
v -1 4 4
v -1 5 4
v -1 7 4
v -1 9 4
v -1 10 4
v 0 0 4
v 0 4 4
v 0 5 4
v 0 7 4
v 0 9 4
v 1 0 4
v 1 3 4
v 1 4 4
v 1 7 4
v 1 9 4
v 2 3 4
v 2 4 4
v 2 5 4
v 2 7 4
v 2 9 4
v 3 4 4
v 3 5 4
v 3 6 4
v 4 5 4
v 4 6 4
v 0 8 3
v 0 9 3
v 1 8 3
v 1 9 3
v -1 6 4
v -1 7 4
v 0 6 4
v 0 7 4
v 0 8 4
v 0 9 4
v 1 8 4
v 1 9 4
v -2 9 3
v -2 10 3
v -1 4 3
v -1 6 3
v -1 7 3
v -1 9 3
v -1 10 3
v 0 0 3
v 0 4 3
v 0 6 3
v 0 7 3
v 0 8 3
v 0 9 3
v 1 0 3
v 1 3 3
v 1 4 3
v 1 7 3
v 1 8 3
v 1 9 3
v 2 3 3
v 2 4 3
v 2 5 3
v 2 7 3
v 2 9 3
v 3 4 3
v 3 5 3
v 3 6 3
v 4 5 3
v 4 6 3
v 0 8 2
v 0 9 2
v 1 8 2
v 1 9 2
v 0 0 4
v 1 0 4
v 0 0 3
v 1 0 3
v 1 3 4
v 2 3 4
v 1 3 3
v 2 3 3
v -1 4 4
v 0 4 4
v 2 4 4
v 3 4 4
v -1 4 3
v 0 4 3
v 2 4 3
v 3 4 3
v -1 5 5
v 0 5 5
v -1 5 4
v 0 5 4
v 3 5 4
v 4 5 4
v 3 5 3
v 4 5 3
v 0 7 5
v 1 7 5
v -1 7 4
v 0 7 4
v 1 7 4
v 2 7 4
v -1 7 3
v 0 7 3
v 1 7 3
v 2 7 3
v 0 8 3
v 1 8 3
v 0 8 2
v 1 8 2
v -2 9 4
v -1 9 4
v -2 9 3
v -1 9 3
v 1 4 4
v 2 4 4
v 1 4 3
v 2 4 3
v 2 5 4
v 3 5 4
v 2 5 3
v 3 5 3
v -1 6 4
v 0 6 4
v 3 6 4
v 4 6 4
v -1 6 3
v 0 6 3
v 3 6 3
v 4 6 3
v -1 7 5
v 0 7 5
v -1 7 4
v 0 7 4
v 0 8 4
v 1 8 4
v 0 8 3
v 1 8 3
v 0 9 5
v 1 9 5
v -1 9 4
v 0 9 4
v 1 9 4
v 2 9 4
v -1 9 3
v 0 9 3
v 1 9 3
v 2 9 3
v 0 9 2
v 1 9 2
v -2 10 4
v -1 10 4
v -2 10 3
v -1 10 3

# faces
f 3/2/1 2/2/1 1/2/1
f 4/2/1 2/2/1 3/2/1
f 8/1/1 6/1/1 5/1/1
f 9/1/1 6/1/1 8/1/1
f 9/1/1 8/1/1 7/1/1
f 10/1/1 6/1/1 9/1/1
f 11/1/1 9/1/1 7/1/1
f 12/1/1 9/1/1 11/1/1
f 14/2/1 13/2/1 12/2/1
f 15/2/1 13/2/1 14/2/1
f 18/1/1 17/1/1 16/1/1
f 19/1/1 17/1/1 18/1/1
f 23/1/1 21/1/1 20/1/1
f 24/1/1 21/1/1 23/1/1
f 27/2/1 23/2/1 22/2/1
f 28/2/1 23/2/1 27/2/1
f 29/2/1 26/2/1 25/2/1
f 30/2/1 26/2/1 29/2/1
f 33/2/1 32/2/1 31/2/1
f 34/2/1 32/2/1 33/2/1
f 37/1/1 36/1/1 35/1/1
f 38/1/1 36/1/1 37/1/1
f 41/1/1 40/1/1 39/1/1
f 42/1/1 40/1/1 41/1/1
f 43/2/2 44/2/2 45/2/2
f 45/2/2 44/2/2 46/2/2
f 47/1/2 48/1/2 49/1/2
f 49/1/2 48/1/2 50/1/2
f 51/2/2 52/2/2 53/2/2
f 53/2/2 52/2/2 54/2/2
f 55/1/2 56/1/2 57/1/2
f 57/1/2 56/1/2 58/1/2
f 59/1/2 60/1/2 62/1/2
f 62/1/2 60/1/2 63/1/2
f 61/2/2 62/2/2 66/2/2
f 66/2/2 62/2/2 67/2/2
f 64/2/2 65/2/2 68/2/2
f 68/2/2 65/2/2 69/2/2
f 70/1/2 71/1/2 72/1/2
f 72/1/2 71/1/2 73/1/2
f 74/2/2 75/2/2 76/2/2
f 76/2/2 75/2/2 77/2/2
f 78/1/2 79/1/2 80/1/2
f 80/1/2 79/1/2 81/1/2
f 82/1/2 83/1/2 84/1/2
f 84/1/2 83/1/2 85/1/2
f 88/1/3 87/1/3 86/1/3
f 89/1/3 87/1/3 88/1/3
f 91/2/3 90/2/3 89/2/3
f 92/2/3 90/2/3 91/2/3
f 98/2/3 94/2/3 93/2/3
f 99/2/3 94/2/3 98/2/3
f 101/1/3 96/1/3 95/1/3
f 102/1/3 96/1/3 101/1/3
f 103/2/3 98/2/3 97/2/3
f 104/2/3 98/2/3 103/2/3
f 105/1/3 102/1/3 101/1/3
f 105/1/3 101/1/3 100/1/3
f 105/1/3 103/1/3 102/1/3
f 106/1/3 103/1/3 105/1/3
f 107/1/3 103/1/3 106/1/3
f 108/1/3 103/1/3 107/1/3
f 110/1/3 107/1/3 106/1/3
f 111/1/3 107/1/3 110/1/3
f 113/2/3 109/2/3 108/2/3
f 114/2/3 109/2/3 113/2/3
f 115/1/3 112/1/3 111/1/3
f 116/1/3 112/1/3 115/1/3
f 118/1/3 117/1/3 116/1/3
f 119/1/3 117/1/3 118/1/3
f 122/2/3 121/2/3 120/2/3
f 123/2/3 121/2/3 122/2/3
f 124/1/4 125/1/4 126/1/4
f 126/1/4 125/1/4 127/1/4
f 128/2/4 129/2/4 130/2/4
f 130/2/4 129/2/4 131/2/4
f 132/2/4 133/2/4 137/2/4
f 137/2/4 133/2/4 138/2/4
f 134/1/4 135/1/4 140/1/4
f 140/1/4 135/1/4 141/1/4
f 136/2/4 137/2/4 142/2/4
f 142/2/4 137/2/4 143/2/4
f 143/2/4 137/2/4 144/2/4
f 140/1/4 141/1/4 145/1/4
f 139/1/4 140/1/4 145/1/4
f 141/1/4 142/1/4 145/1/4
f 145/1/4 142/1/4 146/1/4
f 146/1/4 142/1/4 147/1/4
f 142/2/4 143/2/4 148/2/4
f 147/1/4 142/1/4 148/1/4
f 148/2/4 143/2/4 149/2/4
f 146/1/4 147/1/4 151/1/4
f 151/1/4 147/1/4 152/1/4
f 149/2/4 150/2/4 154/2/4
f 148/2/4 149/2/4 154/2/4
f 154/2/4 150/2/4 155/2/4
f 152/1/4 153/1/4 156/1/4
f 156/1/4 153/1/4 157/1/4
f 157/1/4 158/1/4 159/1/4
f 159/1/4 158/1/4 160/1/4
f 161/2/4 162/2/4 163/2/4
f 163/2/4 162/2/4 164/2/4
f 167/1/5 166/1/5 165/1/5
f 168/1/5 166/1/5 167/1/5
f 171/1/5 170/1/5 169/1/5
f 172/1/5 170/1/5 171/1/5
f 177/1/5 174/1/5 173/1/5
f 178/1/5 174/1/5 177/1/5
f 179/1/5 176/1/5 175/1/5
f 180/1/5 176/1/5 179/1/5
f 183/1/5 182/1/5 181/1/5
f 184/1/5 182/1/5 183/1/5
f 187/1/5 186/1/5 185/1/5
f 188/1/5 186/1/5 187/1/5
f 192/2/5 190/2/5 189/2/5
f 193/2/5 190/2/5 192/2/5
f 195/2/5 192/2/5 191/2/5
f 196/2/5 192/2/5 195/2/5
f 197/2/5 194/2/5 193/2/5
f 198/2/5 194/2/5 197/2/5
f 201/2/5 200/2/5 199/2/5
f 202/2/5 200/2/5 201/2/5
f 205/2/5 204/2/5 203/2/5
f 206/2/5 204/2/5 205/2/5
f 207/1/6 208/1/6 209/1/6
f 209/1/6 208/1/6 210/1/6
f 211/1/6 212/1/6 213/1/6
f 213/1/6 212/1/6 214/1/6
f 215/1/6 216/1/6 219/1/6
f 219/1/6 216/1/6 220/1/6
f 217/1/6 218/1/6 221/1/6
f 221/1/6 218/1/6 222/1/6
f 223/1/6 224/1/6 225/1/6
f 225/1/6 224/1/6 226/1/6
f 227/2/6 228/2/6 229/2/6
f 229/2/6 228/2/6 230/2/6
f 231/2/6 232/2/6 234/2/6
f 234/2/6 232/2/6 235/2/6
f 233/2/6 234/2/6 237/2/6
f 237/2/6 234/2/6 238/2/6
f 235/2/6 236/2/6 239/2/6
f 239/2/6 236/2/6 240/2/6
f 238/2/6 239/2/6 241/2/6
f 241/2/6 239/2/6 242/2/6
f 243/2/6 244/2/6 245/2/6
f 245/2/6 244/2/6 246/2/6
